# xmcd
#
# Track frame offsets:
#	150
#	17151
#	30362
#	45300
#	63812
#	77929
#	89969
#	105284
#	121288
#	137462
#	150139
#	163772
#	178410
#	192478
#	209213
#	225680
#	240157
#	255958
#	268669
#	283310
#	296589
#	309441
#
# Disc length: 4272 seconds
#
# Revision: 0
# Processed by: cddbd v1.5.2PL0 Copyright (c) Steve Scherf et al.
# Submitted via: EZCDAudioConverter 3.1.5.1
#
DISCID=2e10ae16
DTITLE=Χάρις Αλεξίου - Τα Τσίλικα
DYEAR=1900
DGENRE=rempetika
TTITLE0=Μπαρμπαγιαννάκης
TTITLE1=Καμωματού
TTITLE2=Αεροπλάνο Θα Πάρω
TTITLE3=Έμαθα Πως Είσαι Μάγκας
TTITLE4=Σε Γελάσανε
TTITLE5=Μη Μου Χαλάς Τα Γούστα Μου
TTITLE6=Αμάν, Κατερίνα Μου
TTITLE7=Ας Μη Ξημέρωνε Ποτέ
TTITLE8=Λιλή Η Σκανταλιάρα
TTITLE9=Μόρτισσα Της Κοκκινιάς
TTITLE10=Τηλεγράφημα Στην Κάρμεν
TTITLE11=Γλυκοβραδιάζει
TTITLE12=Μη Μου Λες Ποτέ Πως Δεν Πονάω
TTITLE13=Δυο Μαγκες Μές Την Φυλακή
TTITLE14=Μ' 'Εμπλεξε Ένας Μόρτης
TTITLE15=Μπουρνοβαλιός Μανές
TTITLE16=Θα Μεθώ Και Θα Τα Σπάω
TTITLE17=Κρασοπίνω
TTITLE18=Ναζιάρα Μου
TTITLE19=Πες Το Ναι Και Δεν Θα Χάσεις
TTITLE20=Παγκριώτισα
TTITLE21=Ο Μάγκας
EXTD=
EXTT0=
EXTT1=
EXTT2=
EXTT3=
EXTT4=
EXTT5=
EXTT6=
EXTT7=
EXTT8=
EXTT9=
EXTT10=
EXTT11=
EXTT12=
EXTT13=
EXTT14=
EXTT15=
EXTT16=
EXTT17=
EXTT18=
EXTT19=
EXTT20=
EXTT21=
PLAYORDER=
